<?xml version="1.0" encoding="UTF-8"?> <!DOCTYPE svg PUBLIC "-//W3C//DTD SVG 1.1//EN" "http://www.w3.org/Graphics/SVG/1.1/DTD/svg11.dtd"> <svg width="100%" height="100%" viewBox="0 0 10 5" version="1.1" xmlns="http://www.w3.org/2000/svg"><rect x="0" y="0" width="1" height="1" style="fill: rgb(2, 2, 2);"/><rect x="1" y="0" width="1" height="1" style="fill: rgb(39, 39, 39);"/><rect x="2" y="0" width="1" height="1" style="fill: rgb(74, 74, 74);"/><rect x="3" y="0" width="1" height="1" style="fill: rgb(177, 177, 177);"/><rect x="4" y="0" width="1" height="1" style="fill: rgb(189, 189, 189);"/><rect x="5" y="0" width="1" height="1" style="fill: rgb(134, 134, 134);"/><rect x="6" y="0" width="1" height="1" style="fill: rgb(34, 34, 34);"/><rect x="7" y="0" width="1" height="1" style="fill: rgb(35, 35, 35);"/><rect x="8" y="0" width="1" height="1" style="fill: rgb(49, 49, 49);"/><rect x="9" y="0" width="1" height="1" style="fill: rgb(212, 212, 212);"/><rect x="0" y="1" width="1" height="1" style="fill: rgb(240, 240, 240);"/><rect x="1" y="1" width="1" height="1" style="fill: rgb(96, 96, 96);"/><rect x="2" y="1" width="1" height="1" style="fill: rgb(6, 6, 6);"/><rect x="3" y="1" width="1" height="1" style="fill: rgb(107, 107, 107);"/><rect x="4" y="1" width="1" height="1" style="fill: rgb(20, 20, 20);"/><rect x="5" y="1" width="1" height="1" style="fill: rgb(197, 197, 197);"/><rect x="6" y="1" width="1" height="1" style="fill: rgb(195, 195, 195);"/><rect x="7" y="1" width="1" height="1" style="fill: rgb(139, 139, 139);"/><rect x="8" y="1" width="1" height="1" style="fill: rgb(181, 181, 181);"/><rect x="9" y="1" width="1" height="1" style="fill: rgb(22, 22, 22);"/><rect x="0" y="2" width="1" height="1" style="fill: rgb(140, 140, 140);"/><rect x="1" y="2" width="1" height="1" style="fill: rgb(107, 107, 107);"/><rect x="2" y="2" width="1" height="1" style="fill: rgb(51, 51, 51);"/><rect x="3" y="2" width="1" height="1" style="fill: rgb(184, 184, 184);"/><rect x="4" y="2" width="1" height="1" style="fill: rgb(164, 164, 164);"/><rect x="5" y="2" width="1" height="1" style="fill: rgb(64, 64, 64);"/><rect x="6" y="2" width="1" height="1" style="fill: rgb(66, 66, 66);"/><rect x="7" y="2" width="1" height="1" style="fill: rgb(142, 142, 142);"/><rect x="8" y="2" width="1" height="1" style="fill: rgb(48, 48, 48);"/><rect x="9" y="2" width="1" height="1" style="fill: rgb(12, 12, 12);"/><rect x="0" y="3" width="1" height="1" style="fill: rgb(60, 60, 60);"/><rect x="1" y="3" width="1" height="1" style="fill: rgb(39, 39, 39);"/><rect x="2" y="3" width="1" height="1" style="fill: rgb(102, 102, 102);"/><rect x="3" y="3" width="1" height="1" style="fill: rgb(131, 131, 131);"/><rect x="4" y="3" width="1" height="1" style="fill: rgb(186, 186, 186);"/><rect x="5" y="3" width="1" height="1" style="fill: rgb(153, 153, 153);"/><rect x="6" y="3" width="1" height="1" style="fill: rgb(180, 180, 180);"/><rect x="7" y="3" width="1" height="1" style="fill: rgb(177, 177, 177);"/><rect x="8" y="3" width="1" height="1" style="fill: rgb(175, 175, 175);"/><rect x="9" y="3" width="1" height="1" style="fill: rgb(75, 75, 75);"/><rect x="0" y="4" width="1" height="1" style="fill: rgb(108, 108, 108);"/><rect x="1" y="4" width="1" height="1" style="fill: rgb(80, 80, 80);"/><rect x="2" y="4" width="1" height="1" style="fill: rgb(250, 250, 250);"/><rect x="3" y="4" width="1" height="1" style="fill: rgb(222, 222, 222);"/><rect x="4" y="4" width="1" height="1" style="fill: rgb(118, 118, 118);"/><rect x="5" y="4" width="1" height="1" style="fill: rgb(195, 195, 195);"/><rect x="6" y="4" width="1" height="1" style="fill: rgb(148, 148, 148);"/><rect x="7" y="4" width="1" height="1" style="fill: rgb(165, 165, 165);"/><rect x="8" y="4" width="1" height="1" style="fill: rgb(220, 220, 220);"/><rect x="9" y="4" width="1" height="1" style="fill: rgb(96, 96, 96);"/></svg>