<?xml version="1.0" encoding="UTF-8"?> <!DOCTYPE svg PUBLIC "-//W3C//DTD SVG 1.1//EN" "http://www.w3.org/Graphics/SVG/1.1/DTD/svg11.dtd"> <svg width="100%" height="100%" viewBox="0 0 10 5" version="1.1" xmlns="http://www.w3.org/2000/svg"><rect x="0" y="0" width="1" height="1" style="fill: rgb(169, 132, 43);"/><rect x="1" y="0" width="1" height="1" style="fill: rgb(203, 134, 156);"/><rect x="2" y="0" width="1" height="1" style="fill: rgb(27, 222, 251);"/><rect x="3" y="0" width="1" height="1" style="fill: rgb(27, 222, 251);"/><rect x="4" y="0" width="1" height="1" style="fill: rgb(252, 95, 17);"/><rect x="5" y="0" width="1" height="1" style="fill: rgb(244, 144, 19);"/><rect x="6" y="0" width="1" height="1" style="fill: rgb(203, 134, 156);"/><rect x="7" y="0" width="1" height="1" style="fill: rgb(167, 99, 62);"/><rect x="8" y="0" width="1" height="1" style="fill: rgb(27, 222, 251);"/><rect x="9" y="0" width="1" height="1" style="fill: rgb(252, 95, 17);"/><rect x="0" y="1" width="1" height="1" style="fill: rgb(124, 130, 220);"/><rect x="1" y="1" width="1" height="1" style="fill: rgb(244, 144, 19);"/><rect x="2" y="1" width="1" height="1" style="fill: rgb(128, 45, 115);"/><rect x="3" y="1" width="1" height="1" style="fill: rgb(124, 130, 220);"/><rect x="4" y="1" width="1" height="1" style="fill: rgb(244, 144, 19);"/><rect x="5" y="1" width="1" height="1" style="fill: rgb(203, 134, 156);"/><rect x="6" y="1" width="1" height="1" style="fill: rgb(203, 134, 156);"/><rect x="7" y="1" width="1" height="1" style="fill: rgb(124, 130, 220);"/><rect x="8" y="1" width="1" height="1" style="fill: rgb(167, 99, 62);"/><rect x="9" y="1" width="1" height="1" style="fill: rgb(128, 45, 115);"/><rect x="0" y="2" width="1" height="1" style="fill: rgb(203, 134, 156);"/><rect x="1" y="2" width="1" height="1" style="fill: rgb(244, 144, 19);"/><rect x="2" y="2" width="1" height="1" style="fill: rgb(252, 95, 17);"/><rect x="3" y="2" width="1" height="1" style="fill: rgb(169, 132, 43);"/><rect x="4" y="2" width="1" height="1" style="fill: rgb(128, 45, 115);"/><rect x="5" y="2" width="1" height="1" style="fill: rgb(203, 134, 156);"/><rect x="6" y="2" width="1" height="1" style="fill: rgb(27, 222, 251);"/><rect x="7" y="2" width="1" height="1" style="fill: rgb(167, 99, 62);"/><rect x="8" y="2" width="1" height="1" style="fill: rgb(203, 134, 156);"/><rect x="9" y="2" width="1" height="1" style="fill: rgb(169, 132, 43);"/><rect x="0" y="3" width="1" height="1" style="fill: rgb(169, 132, 43);"/><rect x="1" y="3" width="1" height="1" style="fill: rgb(252, 95, 17);"/><rect x="2" y="3" width="1" height="1" style="fill: rgb(252, 95, 17);"/><rect x="3" y="3" width="1" height="1" style="fill: rgb(124, 130, 220);"/><rect x="4" y="3" width="1" height="1" style="fill: rgb(124, 130, 220);"/><rect x="5" y="3" width="1" height="1" style="fill: rgb(203, 134, 156);"/><rect x="6" y="3" width="1" height="1" style="fill: rgb(27, 222, 251);"/><rect x="7" y="3" width="1" height="1" style="fill: rgb(244, 144, 19);"/><rect x="8" y="3" width="1" height="1" style="fill: rgb(124, 130, 220);"/><rect x="9" y="3" width="1" height="1" style="fill: rgb(124, 130, 220);"/><rect x="0" y="4" width="1" height="1" style="fill: rgb(252, 95, 17);"/><rect x="1" y="4" width="1" height="1" style="fill: rgb(128, 45, 115);"/><rect x="2" y="4" width="1" height="1" style="fill: rgb(167, 99, 62);"/><rect x="3" y="4" width="1" height="1" style="fill: rgb(244, 144, 19);"/><rect x="4" y="4" width="1" height="1" style="fill: rgb(252, 95, 17);"/><rect x="5" y="4" width="1" height="1" style="fill: rgb(252, 95, 17);"/><rect x="6" y="4" width="1" height="1" style="fill: rgb(124, 130, 220);"/><rect x="7" y="4" width="1" height="1" style="fill: rgb(128, 45, 115);"/><rect x="8" y="4" width="1" height="1" style="fill: rgb(252, 95, 17);"/><rect x="9" y="4" width="1" height="1" style="fill: rgb(124, 130, 220);"/></svg>